Coordinates
version=1
nRows=24
nColumns=24
inDegrees=yes

Units are S.I. units (second, meters, Newtons, ...)
Angles are in degrees.

endheader
time	pelvis_tilt	pelvis_list	pelvis_rotation	pelvis_tx	pelvis_ty	pelvis_tz	hip_flexion_r	hip_adduction_r	hip_rotation_r	knee_angle_r	ankle_angle_r	subtalar_angle_r	mtp_angle_r	hip_flexion_l	hip_adduction_l	hip_rotation_l	knee_angle_l	ankle_angle_l	subtalar_angle_l	mtp_angle_l	lumbar_extension	lumbar_bending	lumbar_rotation
      1.04583333	      0.20110111	     -4.60641377	     -1.67460720	     -0.15935714	      1.05365999	      0.36320866	    -15.27062006	      9.50426204	     -0.03748787	     -2.81817478	      6.47617420	    -11.45306302	      1.20234212	     20.24555740	     -2.67812498	     -2.25062503	      1.25117429	      3.20385179	     -0.87985999	     -0.11352857	      3.29135348	      8.22326235	      0.08654975
      1.05000000	      0.21907919	     -4.63349000	     -1.74927640	     -0.15386301	      1.05311044	      0.36313598	    -15.40353414	      9.49580768	      0.06659751	     -3.26010307	      6.58864986	    -11.45144973	      1.20959184	     20.11154672	     -2.67397877	     -2.73771797	      1.49029068	      3.13183726	     -0.05029286	     -0.19631785	      3.21202884	      8.15282165	      0.02660953
      1.05416667	      0.16174768	     -4.64778439	     -1.73076865	     -0.14821495	      1.05243127	      0.36283346	    -15.45888694	      9.48820417	      0.10199657	     -3.68315664	      6.57751290	    -11.49347697	      1.21009813	     20.02855934	     -2.61667844	     -2.69436260	      1.71600634	      3.10071772	      0.05103718	     -0.20347857	      3.26099409	      8.16042414	      0.02383287
      1.05833333	      0.12013008	     -4.62420392	     -1.68744201	     -0.14239942	      1.05182190	      0.36258902	    -15.53941194	      9.45235160	      0.17108804	     -4.10549155	      6.66736174	    -11.60207939	      1.21435018	     19.93482523	     -2.51976010	     -2.77036067	      1.87301998	      2.75589739	      0.33198453	     -0.23208621	      3.38458273	      8.12583707	      0.02408279
      1.06250000	      0.09547422	     -4.64977247	     -1.67599277	     -0.13680220	      1.05126252	      0.36237133	    -15.58693489	      9.46149461	      0.21586717	     -4.61129670	      6.65158711	    -11.64263543	      1.21567077	     19.84239767	     -2.48908927	     -2.76479539	      1.92166218	      2.66668882	      0.40837564	     -0.23753580	      3.44048620	      8.08563166	      0.02368974
      1.06666667	      0.03790608	     -4.60721485	     -1.66969789	     -0.13093408	      1.05072792	      0.36222590	    -15.61164204	      9.39935159	      0.28818319	     -5.11554632	      6.71935471	    -11.75297775	      1.22336834	     19.77583264	     -2.39350725	     -2.92755692	      1.93051758	      2.15948263	      0.62618305	     -0.25815125	      3.53380063	      7.99723780	      0.01296567
      1.07083333	      0.02872004	     -4.61702033	     -1.64570532	     -0.12526740	      1.05027074	      0.36204150	    -15.64792415	      9.39399560	      0.34481986	     -5.67560617	      6.68589010	    -11.78246750	      1.22557287	     19.67594627	     -2.35280668	     -2.90391976	      1.84019558	      2.05997051	      0.67582844	     -0.26022221	      3.60124366	      7.94951954	      0.01535034
      1.07500000	     -0.04456271	     -4.56892961	     -1.64922620	     -0.11936805	      1.04980210	      0.36189306	    -15.60949602	      9.32093075	      0.36128583	     -6.26555672	      6.68505560	    -11.85974387	      1.23591246	     19.63039518	     -2.26052347	     -3.01313412	      1.73005823	      1.53835994	      0.77867182	     -0.26737116	      3.67402608	      7.85038807	      0.00556157
      1.07916667	     -0.03578376	     -4.56078420	     -1.61281934	     -0.11364033	      1.04945363	      0.36173033	    -15.63625334	      9.29878346	      0.41437785	     -6.88039811	      6.63597631	    -11.87650519	      1.23926276	     19.51830357	     -2.20970608	     -2.97518396	      1.52602244	      1.41570750	      0.80081120	     -0.26685056	      3.76222057	      7.78562710	      0.01251718
      1.08333333	     -0.10242999	     -4.50292503	     -1.58797374	     -0.10769807	      1.04907519	      0.36154227	    -15.56077272	      9.21747221	      0.33607613	     -7.54647748	      6.55958607	    -11.86829851	      1.25933700	     19.47928350	     -2.10692255	     -3.06458799	      1.31378001	      0.77118793	      0.77418286	     -0.26184988	      3.86721261	      7.64744936	      0.00485476
      1.08750000	     -0.08565307	     -4.47009107	     -1.57331591	     -0.10189762	      1.04885761	      0.36139982	    -15.55377539	      9.15643641	      0.35983955	     -8.24504789	      6.49244338	    -11.87250095	      1.26447768	     19.34531993	     -2.04695810	     -2.99351859	      1.05017405	      0.64196482	      0.77647628	     -0.25840730	      3.94252331	      7.57310628	      0.01035905
      1.09166667	     -0.20977811	     -4.39078265	     -1.53744036	     -0.09586119	      1.04849459	      0.36100590	    -15.36267853	      9.02993602	      0.13259776	     -9.01253743	      6.42219541	    -11.48681894	      1.37890595	     19.33870485	     -1.90812217	     -2.79083563	      0.82848028	     -0.19328812	      0.11934736	     -0.16296910	      4.12761091	      7.41472924	     -0.06749887
      1.09583333	     -0.17476932	     -4.34163580	     -1.51191343	     -0.09005284	      1.04840425	      0.36084583	    -15.32536911	      8.94775780	      0.09393646	     -9.79930943	      6.33087420	    -11.50542961	      1.38550626	     19.19240251	     -1.83825668	     -2.73173806	      0.50019550	     -0.31185713	      0.13011043	     -0.15720361	      4.19076348	      7.32743738	     -0.05737197
      1.10000000	     -0.23314845	     -4.21397486	     -1.43999790	     -0.08394033	      1.04823977	      0.36046465	    -15.15888471	      8.77445951	     -0.29111761	    -10.63421691	      6.07333951	    -11.38717685	      1.41544102	     19.14459067	     -1.65273479	     -2.79112578	      0.16635013	     -0.82903783	      0.03496985	     -0.13838279	      4.17325802	      7.12856022	     -0.04723057
      1.10416667	     -0.23864761	     -4.10617850	     -1.38721123	     -0.07792440	      1.04820590	      0.36009947	    -15.02369049	      8.60939914	     -0.58392567	    -11.51423791	      5.81130270	    -11.14511952	      1.45859204	     19.02406164	     -1.50342635	     -2.70398320	     -0.15164016	     -1.32469058	     -0.13369407	     -0.11087739	      4.25312843	      6.95839795	     -0.05086556
      1.10833333	     -0.16066526	     -4.04856084	     -1.34254328	     -0.07216597	      1.04834079	      0.35992974	    -14.95937423	      8.51009115	     -0.63306106	    -12.42136930	      5.68647086	    -11.09652499	      1.47048258	     18.84085519	     -1.44047981	     -2.61544563	     -0.53948020	     -1.46530456	     -0.16883544	     -0.10332199	      4.35122481	      6.84356452	     -0.04058582
      1.11250000	     -0.25806890	     -3.87774645	     -1.17334897	     -0.06595572	      1.04824608	      0.35891615	    -14.65611228	      8.24011275	     -1.35408055	    -13.42479020	      5.47828828	    -10.04380399	      1.73426227	     18.78635968	     -1.14178396	     -2.06999940	     -0.79529734	     -2.45724609	     -1.45323415	      0.05827707	      4.49022786	      6.59817890	     -0.21200291
      1.11666667	     -0.20172074	     -3.73485344	     -1.07911603	     -0.05994366	      1.04845328	      0.35847118	    -14.50938459	      8.02448422	     -1.75110469	    -14.42856828	      5.11276110	     -9.91324311	      1.80130567	     18.62445750	     -0.95722594	     -2.11954571	     -1.20290742	     -2.72169474	     -1.53288275	      0.09950880	      4.52081035	      6.40321678	     -0.20965971
      1.12083333	     -0.19024930	     -3.57108615	     -1.06040252	     -0.05390864	      1.04869795	      0.35803241	    -14.27582710	      7.75162419	     -2.10008889	    -15.51705485	      4.77513536	     -9.74964585	      1.84915538	     18.47345893	     -0.77129271	     -2.07903816	     -1.56133706	     -2.96002282	     -1.57946091	      0.12526976	      4.46481286	      6.22297403	     -0.21428562
      1.12500000	     -0.12594005	     -3.39649784	     -0.90548299	     -0.04780958	      1.04900434	      0.35729182	    -14.08730040	      7.47346854	     -2.63967322	    -16.59212661	      4.17636180	     -9.08727052	      2.02938421	     18.27342946	     -0.52365869	     -1.83216378	     -1.90976373	     -3.49188751	     -1.92471422	      0.21060356	      4.60834642	      5.96902160	     -0.26217586
      1.12916667	     -0.10149704	     -3.23828496	     -0.85626368	     -0.04189461	      1.04933654	      0.35675393	    -13.79492066	      7.19231198	     -3.05231391	    -17.80134942	      3.89104421	     -8.96255501	      2.08281181	     18.14486337	     -0.33763670	     -1.87483449	     -2.34342770	     -3.62257928	     -2.03008895	      0.23465005	      4.49897528	      5.78317080	     -0.27454609
      1.13333333	     -0.06225200	     -3.04553573	     -0.77885203	     -0.03586441	      1.04973315	      0.35609337	    -13.50021875	      6.85818277	     -3.55824627	    -19.03085015	      3.38607546	     -8.66310391	      2.14939484	     17.98540043	     -0.10182386	     -1.87468905	     -2.75541742	     -3.82900153	     -2.12453188	      0.26079894	      4.45394101	      5.55350510	     -0.27855665
      1.13750000	      0.06125045	     -2.82424204	     -0.56299488	     -0.02981657	      1.05022293	      0.35497014	    -13.28326058	      6.47759837	     -4.25013811	    -20.26075605	      2.79988460	     -7.76310128	      2.88830148	     17.70449222	      0.23387257	     -1.35688284	     -3.08280774	     -4.37845030	     -3.13770377	      0.52681050	      4.56295819	      5.18700609	     -0.58026751
      1.14166667	      0.11829854	     -2.66424784	     -0.45285705	     -0.02398717	      1.05068312	      0.35429361	    -12.93818025	      6.17287155	     -4.72562683	    -21.58131287	      2.13942911	     -7.50602935	      3.00645510	     17.56619254	      0.43253821	     -1.41564996	     -3.56484462	     -4.47882066	     -3.07318029	      0.56831326	      4.47774334	      4.99057202	     -0.56401477
